<svg xmlns="http://www.w3.org/2000/svg" xmlns:xlink="http://www.w3.org/1999/xlink" viewBox="0 0 1234.46 1075.03"><defs><style>.cls-1{filter:url(#luminosity-noclip);}.cls-2{filter:url(#luminosity-noclip-2);}.cls-3{opacity:0.5;}.cls-4{mask:url(#mask);}.cls-5,.cls-7{fill:#fff;}.cls-6{mask:url(#mask-2);}.cls-7{font-size:134.42px;font-family:Gilroy-ExtraBold, Gilroy;font-weight:800;letter-spacing:0.49em;}.cls-8{letter-spacing:0.5em;}.cls-9{letter-spacing:0.48em;}.cls-10{letter-spacing:0.5em;}.cls-11{font-size:53.77px;letter-spacing:0.8em;}.cls-12{letter-spacing:0.79em;}.cls-13{letter-spacing:0.79em;}.cls-14{letter-spacing:0.8em;}</style><filter id="luminosity-noclip" x="277.23" y="39.41" width="680" height="680" filterUnits="userSpaceOnUse" color-interpolation-filters="sRGB"><feFlood flood-color="#fff" result="bg"/><feBlend in="SourceGraphic" in2="bg"/></filter><mask id="mask" x="277.23" y="39.41" width="680" height="680" maskUnits="userSpaceOnUse"><circle class="cls-1" cx="617.23" cy="379.41" r="308.09"/></mask><filter id="luminosity-noclip-2" x="407.1" y="169.27" width="428.78" height="420.27" filterUnits="userSpaceOnUse" color-interpolation-filters="sRGB"><feFlood flood-color="#fff" result="bg"/><feBlend in="SourceGraphic" in2="bg"/></filter><mask id="mask-2" x="407.1" y="169.27" width="428.78" height="420.27" maskUnits="userSpaceOnUse"><path class="cls-2" d="M835.75,347.38A331.84,331.84,0,0,0,833,312.67q-.62-4.37-1.43-8.78c-.31-1.49-.58-2.89-.92-4.47s-.85-3.31-1.39-4.93a54.61,54.61,0,0,0-10-18.11,54,54,0,0,0-7.56-7.4l-7.13-5.43c-2.35-1.88-4.89-3.43-7.34-5.12l-3.72-2.5c-1.23-.83-2.52-1.56-3.79-2.34A231.35,231.35,0,0,0,758,237.36a264.54,264.54,0,0,0-33.45-11.69,295.87,295.87,0,0,0-69.95-10.83A248.79,248.79,0,0,0,619,216.27c-5.88.73-11.74,1.5-17.54,2.56s-11.6,2.17-17.32,3.56c-4.22,1-8.4,2.1-12.57,3.31-7.17,2.08-14.24,4.49-21.23,7.11a248.31,248.31,0,0,0-32.22,14.76c-5.26,2.71-10.27,5.93-15.32,9-4.91,3.33-9.89,6.55-14.55,10.29l-3.52,2.71c-1.2.93-2.63,2.16-3.86,3.3a52.71,52.71,0,0,0-15.16,26.23c-1.39,5.88-2.36,11.67-3.15,17.45s-1.42,11.54-1.92,17.28a284.58,284.58,0,0,0-1.08,34.75c.6,10.84,1.08,21.51,2,32.22.06.74.14,1.47.2,2.2,1,11.44,2.48,22.86,4.49,34.32,1,5.72,2.19,11.45,3.62,17.18l1.12,4.3.59,2.16.31,1.08.39,1.23a52.68,52.68,0,0,0,4.2,9.65,54.87,54.87,0,0,0,13.56,16c1.37,1.11,2.8,2.15,4.26,3.12.79.54,1.37.9,2,1.29l1.87,1.17c2.52,1.56,5,3.16,7.59,4.59a291.72,291.72,0,0,0,64.82,27.66A299.51,299.51,0,0,0,605,534.66a281.61,281.61,0,0,0,35.5,3.43c24,.85,47.77-2.35,70.57-8.28l8.51-2.33,8.44-2.62c2-.7,4-1.37,6-2.08,3.54-1.23,7.09-2.54,10.58-3.93a316.57,316.57,0,0,0,31.89-14.76c2.58-1.42,5.16-2.77,7.69-4.25l7.57-4.49,2.81-1.77,4.65-2.93a54.75,54.75,0,0,0,7.95-6.34,54.06,54.06,0,0,0,11.72-16.37,57.13,57.13,0,0,0,3.22-9.17c.79-2.83,1.5-5.66,2.16-8.49,1.37-5.67,2.56-11.33,3.68-17s2.14-11.33,3.08-17a343.69,343.69,0,0,0,4-34.15C835.58,370.74,836.12,358.88,835.75,347.38Zm-206.34,92a21.23,21.23,0,1,1-21.24-21.2A21.23,21.23,0,0,1,629.41,439.41ZM690,338.6a33.88,33.88,0,1,1,33.9-33.88A33.88,33.88,0,0,1,690,338.6Zm94.43,5.78a15.56,15.56,0,1,1-15.57,15.56A15.58,15.58,0,0,1,784.42,344.38ZM488.91,291.89a34.18,34.18,0,0,1,4.69-4.63,28.75,28.75,0,0,1,2.75-2l3.39-2.14c4.42-3,9.18-5.47,13.8-8.09,4.84-2.33,9.58-4.76,14.59-6.74,4.87-2.2,10-3.93,15-5.78l7.67-2.46c2.54-.85,5.16-1.49,7.73-2.26l3.87-1.1,3.93-.94c2.62-.62,5.2-1.35,7.84-1.85l7.88-1.69,7.94-1.45,3.84-.63a104,104,0,0,1-113.42,157.6c-4.94-39.95-4.59-87.36,5.18-111.11A32.3,32.3,0,0,1,488.91,291.89ZM758.15,488a323.41,323.41,0,0,1-46,12.64,43.68,43.68,0,1,1,81.17-32.13c-8.88,6.91-21.2,13.54-35.13,19.47C758.19,488,758.17,488.05,758.15,488Z"/></mask></defs><g id="Layer_17" data-name="Layer 17"><g class="cls-4"><circle class="cls-5" cx="617.23" cy="379.41" r="340"/></g><g class="cls-6"><circle class="cls-5" cx="617.23" cy="379.41" r="210.14"/></g><text class="cls-7" transform="translate(29.28 938.91)">L<tspan class="cls-8" x="130.39" y="0">UMON</tspan><tspan class="cls-9" x="792.8" y="0">A</tspan><tspan class="cls-10" x="948.73" y="0">UT</tspan><tspan class="cls-11"><tspan x="187.38" y="94.09">P</tspan><tspan class="cls-12" x="262.12" y="94.09">R</tspan><tspan x="337.66" y="94.09">O</tspan><tspan class="cls-13" x="423.04" y="94.09">D</tspan><tspan x="503.96" y="94.09">U</tspan><tspan class="cls-12" x="581.93" y="94.09">C</tspan><tspan x="663.06" y="94.09">TIO</tspan><tspan class="cls-12" x="878.56" y="94.09">N</tspan><tspan class="cls-14" x="957.06" y="94.09">S</tspan></tspan></text></g></svg>